# xmcd
#
# Track frame offsets: 
#        150
#        23250
#        34155
#        48617
#        62612
#        90055
#        102567
#        113615
#        122262
#        137677
#        142685
#        157487
#
# Disc length: 2426 seconds
#
# Revision: 5
# Processed by: cddbd v1.5.2PL0 Copyright (c) Steve Scherf et al.
# Submitted via: ExactAudioCopy v0.99pb3
#
DISCID=8f09780c
DTITLE=Vince Guaraldi Trio - A Charlie Brown Christmas
DYEAR=1988
DGENRE=Soundtrack
TTITLE0=O Tannenbaum
TTITLE1=What Child is This
TTITLE2=My Little Drum
TTITLE3=Linus and Lucy
TTITLE4=Christmas Time is Here (instrumental)
TTITLE5=Christmas Time is Here (vocal)
TTITLE6=Skating
TTITLE7=Hark, the Herald Angels Sing
TTITLE8=Christmas is Coming
TTITLE9=Fur Elise
TTITLE10=The Christmas Song
TTITLE11=Greensleeves
EXTD=YEAR: 1988
EXTT0=
EXTT1=
EXTT2=
EXTT3=
EXTT4=
EXTT5=
EXTT6=
EXTT7=
EXTT8=
EXTT9=
EXTT10=
EXTT11=
PLAYORDER=
